<?xml version="1.0" encoding="UTF-8" standalone="no"?>
<!DOCTYPE svg PUBLIC "-//W3C//DTD SVG 1.1//EN" "http://www.w3.org/Graphics/SVG/1.1/DTD/svg11.dtd">
<svg width="100%" height="100%" viewBox="0 0 960 960" version="1.1" xmlns="http://www.w3.org/2000/svg" xmlns:xlink="http://www.w3.org/1999/xlink" xml:space="preserve" xmlns:serif="http://www.serif.com/" style="fill-rule:evenodd;clip-rule:evenodd;stroke-linejoin:round;stroke-miterlimit:2;">
    <g id="Dots" transform="matrix(6.03926,0,0,6.03926,-265.848,-39.3761)">
        <circle cx="63.5" cy="25.5" r="1.5"/>
        <g transform="matrix(1,0,0,1,6,0)">
            <circle cx="63.5" cy="25.5" r="1.5"/>
        </g>
        <g transform="matrix(1,0,0,1,12,0)">
            <circle cx="63.5" cy="25.5" r="1.5"/>
        </g>
        <g transform="matrix(1,0,0,1,18,0)">
            <circle cx="63.5" cy="25.5" r="1.5"/>
        </g>
        <g transform="matrix(1,0,0,1,24,0)">
            <circle cx="63.5" cy="25.5" r="1.5"/>
        </g>
        <g transform="matrix(1,0,0,1,30,0)">
            <circle cx="63.5" cy="25.5" r="1.5"/>
        </g>
        <g transform="matrix(1,0,0,1,36,0)">
            <circle cx="63.5" cy="25.5" r="1.5"/>
        </g>
        <g transform="matrix(1,0,0,1,42,0)">
            <circle cx="63.5" cy="25.5" r="1.5"/>
        </g>
        <g transform="matrix(1,0,0,1,48,0)">
            <circle cx="63.5" cy="25.5" r="1.5"/>
        </g>
        <g transform="matrix(1,0,0,1,54,0)">
            <circle cx="63.5" cy="25.5" r="1.5"/>
        </g>
        <g transform="matrix(1,0,0,1,60,0)">
            <circle cx="63.5" cy="25.5" r="1.5"/>
        </g>
        <g transform="matrix(1,0,0,1,66,0)">
            <circle cx="63.5" cy="25.5" r="1.5"/>
        </g>
        <g transform="matrix(1,0,0,1,72,0)">
            <circle cx="63.5" cy="25.5" r="1.5"/>
        </g>
        <g transform="matrix(1,0,0,1,78,0)">
            <circle cx="63.5" cy="25.5" r="1.5"/>
        </g>
        <g transform="matrix(1,0,0,1,84,0)">
            <circle cx="63.5" cy="25.5" r="1.5"/>
        </g>
        <g transform="matrix(1,0,0,1,90,0)">
            <circle cx="63.5" cy="25.5" r="1.5"/>
        </g>
        <g transform="matrix(1,0,0,1,96,0)">
            <circle cx="63.5" cy="25.5" r="1.5"/>
        </g>
        <g transform="matrix(1,0,0,1,102,0)">
            <circle cx="63.5" cy="25.5" r="1.5"/>
        </g>
        <g transform="matrix(1,0,0,1,108,0)">
            <circle cx="63.5" cy="25.5" r="1.5"/>
        </g>
        <g transform="matrix(1,0,0,1,114,0)">
            <circle cx="63.5" cy="25.5" r="1.5"/>
        </g>
        <g transform="matrix(1,0,0,1,120,0)">
            <circle cx="63.5" cy="25.5" r="1.5"/>
        </g>
        <g transform="matrix(1,0,0,1,0,6)">
            <circle cx="63.5" cy="25.5" r="1.5"/>
        </g>
        <g transform="matrix(1,0,0,1,6,6)">
            <circle cx="63.5" cy="25.5" r="1.5"/>
        </g>
        <g transform="matrix(1,0,0,1,12,6)">
            <circle cx="63.5" cy="25.5" r="1.5"/>
        </g>
        <g transform="matrix(1,0,0,1,18,6)">
            <circle cx="63.5" cy="25.5" r="1.5"/>
        </g>
        <g transform="matrix(1,0,0,1,24,6)">
            <circle cx="63.5" cy="25.5" r="1.5"/>
        </g>
        <g transform="matrix(1,0,0,1,30,6)">
            <circle cx="63.5" cy="25.5" r="1.5"/>
        </g>
        <g transform="matrix(1,0,0,1,36,6)">
            <circle cx="63.5" cy="25.5" r="1.5"/>
        </g>
        <g transform="matrix(1,0,0,1,42,6)">
            <circle cx="63.5" cy="25.5" r="1.5"/>
        </g>
        <g transform="matrix(1,0,0,1,48,6)">
            <circle cx="63.5" cy="25.5" r="1.5"/>
        </g>
        <g transform="matrix(1,0,0,1,54,6)">
            <circle cx="63.5" cy="25.5" r="1.5"/>
        </g>
        <g transform="matrix(1,0,0,1,60,6)">
            <circle cx="63.5" cy="25.5" r="1.5"/>
        </g>
        <g transform="matrix(1,0,0,1,66,6)">
            <circle cx="63.5" cy="25.5" r="1.5"/>
        </g>
        <g transform="matrix(1,0,0,1,72,6)">
            <circle cx="63.5" cy="25.5" r="1.5"/>
        </g>
        <g transform="matrix(1,0,0,1,78,6)">
            <circle cx="63.5" cy="25.5" r="1.5"/>
        </g>
        <g transform="matrix(1,0,0,1,84,6)">
            <circle cx="63.5" cy="25.5" r="1.5"/>
        </g>
        <g transform="matrix(1,0,0,1,90,6)">
            <circle cx="63.5" cy="25.5" r="1.5"/>
        </g>
        <g transform="matrix(1,0,0,1,96,6)">
            <circle cx="63.5" cy="25.5" r="1.5"/>
        </g>
        <g transform="matrix(1,0,0,1,102,6)">
            <circle cx="63.5" cy="25.5" r="1.5"/>
        </g>
        <g transform="matrix(1,0,0,1,108,6)">
            <circle cx="63.5" cy="25.5" r="1.5"/>
        </g>
        <g transform="matrix(1,0,0,1,114,6)">
            <circle cx="63.5" cy="25.5" r="1.5"/>
        </g>
        <g transform="matrix(1,0,0,1,120,6)">
            <circle cx="63.5" cy="25.5" r="1.5"/>
        </g>
        <g transform="matrix(1,0,0,1,0,12)">
            <circle cx="63.5" cy="25.5" r="1.5"/>
        </g>
        <g transform="matrix(1,0,0,1,6,12)">
            <circle cx="63.5" cy="25.5" r="1.5"/>
        </g>
        <g transform="matrix(1,0,0,1,12,12)">
            <circle cx="63.5" cy="25.5" r="1.5"/>
        </g>
        <g transform="matrix(1,0,0,1,18,12)">
            <circle cx="63.5" cy="25.5" r="1.5"/>
        </g>
        <g transform="matrix(1,0,0,1,24,12)">
            <circle cx="63.5" cy="25.5" r="1.5"/>
        </g>
        <g transform="matrix(1,0,0,1,30,12)">
            <circle cx="63.5" cy="25.5" r="1.5"/>
        </g>
        <g transform="matrix(1,0,0,1,36,12)">
            <circle cx="63.5" cy="25.5" r="1.5"/>
        </g>
        <g transform="matrix(1,0,0,1,42,12)">
            <circle cx="63.5" cy="25.5" r="1.5"/>
        </g>
        <g transform="matrix(1,0,0,1,48,12)">
            <circle cx="63.5" cy="25.5" r="1.5"/>
        </g>
        <g transform="matrix(1,0,0,1,54,12)">
            <circle cx="63.5" cy="25.5" r="1.5"/>
        </g>
        <g transform="matrix(1,0,0,1,60,12)">
            <circle cx="63.5" cy="25.5" r="1.5"/>
        </g>
        <g transform="matrix(1,0,0,1,66,12)">
            <circle cx="63.5" cy="25.5" r="1.5"/>
        </g>
        <g transform="matrix(1,0,0,1,72,12)">
            <circle cx="63.5" cy="25.5" r="1.5"/>
        </g>
        <g transform="matrix(1,0,0,1,78,12)">
            <circle cx="63.5" cy="25.5" r="1.5"/>
        </g>
        <g transform="matrix(1,0,0,1,84,12)">
            <circle cx="63.5" cy="25.5" r="1.5"/>
        </g>
        <g transform="matrix(1,0,0,1,90,12)">
            <circle cx="63.5" cy="25.5" r="1.5"/>
        </g>
        <g transform="matrix(1,0,0,1,96,12)">
            <circle cx="63.5" cy="25.5" r="1.5"/>
        </g>
        <g transform="matrix(1,0,0,1,102,12)">
            <circle cx="63.5" cy="25.5" r="1.5"/>
        </g>
        <g transform="matrix(1,0,0,1,108,12)">
            <circle cx="63.5" cy="25.5" r="1.5"/>
        </g>
        <g transform="matrix(1,0,0,1,114,12)">
            <circle cx="63.5" cy="25.5" r="1.5"/>
        </g>
        <g transform="matrix(1,0,0,1,120,12)">
            <circle cx="63.5" cy="25.5" r="1.5"/>
        </g>
        <g transform="matrix(1,0,0,1,0,18)">
            <circle cx="63.5" cy="25.5" r="1.5"/>
        </g>
        <g transform="matrix(1,0,0,1,6,18)">
            <circle cx="63.5" cy="25.5" r="1.5"/>
        </g>
        <g transform="matrix(1,0,0,1,12,18)">
            <circle cx="63.5" cy="25.5" r="1.5"/>
        </g>
        <g transform="matrix(1,0,0,1,18,18)">
            <circle cx="63.5" cy="25.5" r="1.5"/>
        </g>
        <g transform="matrix(1,0,0,1,24,18)">
            <circle cx="63.5" cy="25.5" r="1.5"/>
        </g>
        <g transform="matrix(1,0,0,1,30,18)">
            <circle cx="63.5" cy="25.5" r="1.5"/>
        </g>
        <g transform="matrix(1,0,0,1,36,18)">
            <circle cx="63.5" cy="25.5" r="1.5"/>
        </g>
        <g transform="matrix(1,0,0,1,42,18)">
            <circle cx="63.5" cy="25.5" r="1.5"/>
        </g>
        <g transform="matrix(1,0,0,1,48,18)">
            <circle cx="63.5" cy="25.5" r="1.5"/>
        </g>
        <g transform="matrix(1,0,0,1,54,18)">
            <circle cx="63.5" cy="25.5" r="1.5"/>
        </g>
        <g transform="matrix(1,0,0,1,60,18)">
            <circle cx="63.5" cy="25.5" r="1.5"/>
        </g>
        <g transform="matrix(1,0,0,1,66,18)">
            <circle cx="63.5" cy="25.5" r="1.5"/>
        </g>
        <g transform="matrix(1,0,0,1,72,18)">
            <circle cx="63.5" cy="25.5" r="1.5"/>
        </g>
        <g transform="matrix(1,0,0,1,78,18)">
            <circle cx="63.5" cy="25.5" r="1.5"/>
        </g>
        <g transform="matrix(1,0,0,1,84,18)">
            <circle cx="63.5" cy="25.5" r="1.5"/>
        </g>
        <g transform="matrix(1,0,0,1,90,18)">
            <circle cx="63.5" cy="25.5" r="1.5"/>
        </g>
        <g transform="matrix(1,0,0,1,96,18)">
            <circle cx="63.5" cy="25.5" r="1.5"/>
        </g>
        <g transform="matrix(1,0,0,1,102,18)">
            <circle cx="63.5" cy="25.5" r="1.5"/>
        </g>
        <g transform="matrix(1,0,0,1,108,18)">
            <circle cx="63.5" cy="25.5" r="1.5"/>
        </g>
        <g transform="matrix(1,0,0,1,114,18)">
            <circle cx="63.5" cy="25.5" r="1.5"/>
        </g>
        <g transform="matrix(1,0,0,1,120,18)">
            <circle cx="63.5" cy="25.5" r="1.5"/>
        </g>
        <g transform="matrix(1,0,0,1,0,24)">
            <circle cx="63.5" cy="25.5" r="1.5"/>
        </g>
        <g transform="matrix(1,0,0,1,6,24)">
            <circle cx="63.5" cy="25.5" r="1.5"/>
        </g>
        <g transform="matrix(1,0,0,1,12,24)">
            <circle cx="63.5" cy="25.5" r="1.5"/>
        </g>
        <g transform="matrix(1,0,0,1,18,24)">
            <circle cx="63.5" cy="25.5" r="1.5"/>
        </g>
        <g transform="matrix(1,0,0,1,24,24)">
            <circle cx="63.5" cy="25.5" r="1.5"/>
        </g>
        <g transform="matrix(1,0,0,1,30,24)">
            <circle cx="63.5" cy="25.5" r="1.5"/>
        </g>
        <g transform="matrix(1,0,0,1,36,24)">
            <circle cx="63.5" cy="25.5" r="1.5"/>
        </g>
        <g transform="matrix(1,0,0,1,42,24)">
            <circle cx="63.5" cy="25.5" r="1.5"/>
        </g>
        <g transform="matrix(1,0,0,1,48,24)">
            <circle cx="63.5" cy="25.5" r="1.5"/>
        </g>
        <g transform="matrix(1,0,0,1,54,24)">
            <circle cx="63.5" cy="25.5" r="1.5"/>
        </g>
        <g transform="matrix(1,0,0,1,60,24)">
            <circle cx="63.5" cy="25.5" r="1.5"/>
        </g>
        <g transform="matrix(1,0,0,1,66,24)">
            <circle cx="63.5" cy="25.5" r="1.5"/>
        </g>
        <g transform="matrix(1,0,0,1,72,24)">
            <circle cx="63.5" cy="25.5" r="1.5"/>
        </g>
        <g transform="matrix(1,0,0,1,78,24)">
            <circle cx="63.5" cy="25.5" r="1.5"/>
        </g>
        <g transform="matrix(1,0,0,1,84,24)">
            <circle cx="63.5" cy="25.5" r="1.5"/>
        </g>
        <g transform="matrix(1,0,0,1,90,24)">
            <circle cx="63.5" cy="25.5" r="1.5"/>
        </g>
        <g transform="matrix(1,0,0,1,96,24)">
            <circle cx="63.5" cy="25.5" r="1.5"/>
        </g>
        <g transform="matrix(1,0,0,1,102,24)">
            <circle cx="63.5" cy="25.5" r="1.5"/>
        </g>
        <g transform="matrix(1,0,0,1,108,24)">
            <circle cx="63.5" cy="25.5" r="1.5"/>
        </g>
        <g transform="matrix(1,0,0,1,114,24)">
            <circle cx="63.5" cy="25.5" r="1.5"/>
        </g>
        <g transform="matrix(1,0,0,1,120,24)">
            <circle cx="63.5" cy="25.5" r="1.5"/>
        </g>
        <g transform="matrix(1,0,0,1,0,30)">
            <circle cx="63.5" cy="25.5" r="1.5"/>
        </g>
        <g transform="matrix(1,0,0,1,6,30)">
            <circle cx="63.5" cy="25.5" r="1.5"/>
        </g>
        <g transform="matrix(1,0,0,1,12,30)">
            <circle cx="63.5" cy="25.5" r="1.5"/>
        </g>
        <g transform="matrix(1,0,0,1,18,30)">
            <circle cx="63.5" cy="25.5" r="1.5"/>
        </g>
        <g transform="matrix(1,0,0,1,24,30)">
            <circle cx="63.5" cy="25.5" r="1.5"/>
        </g>
        <g transform="matrix(1,0,0,1,30,30)">
            <circle cx="63.5" cy="25.5" r="1.5"/>
        </g>
        <g transform="matrix(1,0,0,1,36,30)">
            <circle cx="63.5" cy="25.5" r="1.5"/>
        </g>
        <g transform="matrix(1,0,0,1,42,30)">
            <circle cx="63.5" cy="25.5" r="1.5"/>
        </g>
        <g transform="matrix(1,0,0,1,48,30)">
            <circle cx="63.5" cy="25.5" r="1.5"/>
        </g>
        <g transform="matrix(1,0,0,1,54,30)">
            <circle cx="63.5" cy="25.5" r="1.5"/>
        </g>
        <g transform="matrix(1,0,0,1,60,30)">
            <circle cx="63.5" cy="25.5" r="1.5"/>
        </g>
        <g transform="matrix(1,0,0,1,66,30)">
            <circle cx="63.5" cy="25.5" r="1.5"/>
        </g>
        <g transform="matrix(1,0,0,1,72,30)">
            <circle cx="63.5" cy="25.5" r="1.5"/>
        </g>
        <g transform="matrix(1,0,0,1,78,30)">
            <circle cx="63.5" cy="25.5" r="1.5"/>
        </g>
        <g transform="matrix(1,0,0,1,84,30)">
            <circle cx="63.5" cy="25.5" r="1.5"/>
        </g>
        <g transform="matrix(1,0,0,1,90,30)">
            <circle cx="63.5" cy="25.5" r="1.5"/>
        </g>
        <g transform="matrix(1,0,0,1,96,30)">
            <circle cx="63.5" cy="25.5" r="1.5"/>
        </g>
        <g transform="matrix(1,0,0,1,102,30)">
            <circle cx="63.5" cy="25.5" r="1.5"/>
        </g>
        <g transform="matrix(1,0,0,1,108,30)">
            <circle cx="63.5" cy="25.5" r="1.5"/>
        </g>
        <g transform="matrix(1,0,0,1,114,30)">
            <circle cx="63.5" cy="25.5" r="1.5"/>
        </g>
        <g transform="matrix(1,0,0,1,120,30)">
            <circle cx="63.5" cy="25.5" r="1.5"/>
        </g>
        <g transform="matrix(1,0,0,1,0,36)">
            <circle cx="63.5" cy="25.5" r="1.5"/>
        </g>
        <g transform="matrix(1,0,0,1,6,36)">
            <circle cx="63.5" cy="25.5" r="1.5"/>
        </g>
        <g transform="matrix(1,0,0,1,12,36)">
            <circle cx="63.5" cy="25.5" r="1.5"/>
        </g>
        <g transform="matrix(1,0,0,1,18,36)">
            <circle cx="63.5" cy="25.5" r="1.5"/>
        </g>
        <g transform="matrix(1,0,0,1,24,36)">
            <circle cx="63.5" cy="25.5" r="1.5"/>
        </g>
        <g transform="matrix(1,0,0,1,30,36)">
            <circle cx="63.5" cy="25.5" r="1.5"/>
        </g>
        <g transform="matrix(1,0,0,1,36,36)">
            <circle cx="63.5" cy="25.5" r="1.5"/>
        </g>
        <g transform="matrix(1,0,0,1,42,36)">
            <circle cx="63.5" cy="25.5" r="1.5"/>
        </g>
        <g transform="matrix(1,0,0,1,48,36)">
            <circle cx="63.5" cy="25.5" r="1.5"/>
        </g>
        <g transform="matrix(1,0,0,1,54,36)">
            <circle cx="63.5" cy="25.5" r="1.5"/>
        </g>
        <g transform="matrix(1,0,0,1,60,36)">
            <circle cx="63.5" cy="25.5" r="1.5"/>
        </g>
        <g transform="matrix(1,0,0,1,66,36)">
            <circle cx="63.5" cy="25.5" r="1.5"/>
        </g>
        <g transform="matrix(1,0,0,1,72,36)">
            <circle cx="63.5" cy="25.5" r="1.5"/>
        </g>
        <g transform="matrix(1,0,0,1,78,36)">
            <circle cx="63.5" cy="25.5" r="1.5"/>
        </g>
        <g transform="matrix(1,0,0,1,84,36)">
            <circle cx="63.5" cy="25.5" r="1.5"/>
        </g>
        <g transform="matrix(1,0,0,1,90,36)">
            <circle cx="63.5" cy="25.5" r="1.5"/>
        </g>
        <g transform="matrix(1,0,0,1,96,36)">
            <circle cx="63.5" cy="25.5" r="1.5"/>
        </g>
        <g transform="matrix(1,0,0,1,102,36)">
            <circle cx="63.5" cy="25.5" r="1.5"/>
        </g>
        <g transform="matrix(1,0,0,1,108,36)">
            <circle cx="63.5" cy="25.5" r="1.5"/>
        </g>
        <g transform="matrix(1,0,0,1,114,36)">
            <circle cx="63.5" cy="25.5" r="1.5"/>
        </g>
        <g transform="matrix(1,0,0,1,120,36)">
            <circle cx="63.5" cy="25.5" r="1.5"/>
        </g>
        <g transform="matrix(1,0,0,1,0,42)">
            <circle cx="63.5" cy="25.5" r="1.5"/>
        </g>
        <g transform="matrix(1,0,0,1,6,42)">
            <circle cx="63.5" cy="25.5" r="1.5"/>
        </g>
        <g transform="matrix(1,0,0,1,12,42)">
            <circle cx="63.5" cy="25.5" r="1.5"/>
        </g>
        <g transform="matrix(1,0,0,1,18,42)">
            <circle cx="63.5" cy="25.5" r="1.5"/>
        </g>
        <g transform="matrix(1,0,0,1,24,42)">
            <circle cx="63.5" cy="25.5" r="1.5"/>
        </g>
        <g transform="matrix(1,0,0,1,30,42)">
            <circle cx="63.5" cy="25.5" r="1.5"/>
        </g>
        <g transform="matrix(1,0,0,1,36,42)">
            <circle cx="63.5" cy="25.5" r="1.5"/>
        </g>
        <g transform="matrix(1,0,0,1,42,42)">
            <circle cx="63.5" cy="25.5" r="1.5"/>
        </g>
        <g transform="matrix(1,0,0,1,48,42)">
            <circle cx="63.5" cy="25.5" r="1.5"/>
        </g>
        <g transform="matrix(1,0,0,1,54,42)">
            <circle cx="63.5" cy="25.5" r="1.5"/>
        </g>
        <g transform="matrix(1,0,0,1,60,42)">
            <circle cx="63.5" cy="25.5" r="1.5"/>
        </g>
        <g transform="matrix(1,0,0,1,66,42)">
            <circle cx="63.5" cy="25.5" r="1.5"/>
        </g>
        <g transform="matrix(1,0,0,1,72,42)">
            <circle cx="63.5" cy="25.5" r="1.5"/>
        </g>
        <g transform="matrix(1,0,0,1,78,42)">
            <circle cx="63.5" cy="25.5" r="1.5"/>
        </g>
        <g transform="matrix(1,0,0,1,84,42)">
            <circle cx="63.5" cy="25.5" r="1.5"/>
        </g>
        <g transform="matrix(1,0,0,1,90,42)">
            <circle cx="63.5" cy="25.5" r="1.5"/>
        </g>
        <g transform="matrix(1,0,0,1,96,42)">
            <circle cx="63.5" cy="25.5" r="1.5"/>
        </g>
        <g transform="matrix(1,0,0,1,102,42)">
            <circle cx="63.5" cy="25.5" r="1.5"/>
        </g>
        <g transform="matrix(1,0,0,1,108,42)">
            <circle cx="63.5" cy="25.5" r="1.5"/>
        </g>
        <g transform="matrix(1,0,0,1,114,42)">
            <circle cx="63.5" cy="25.5" r="1.5"/>
        </g>
        <g transform="matrix(1,0,0,1,120,42)">
            <circle cx="63.5" cy="25.5" r="1.5"/>
        </g>
        <g transform="matrix(1,0,0,1,0,48)">
            <circle cx="63.5" cy="25.5" r="1.5"/>
        </g>
        <g transform="matrix(1,0,0,1,6,48)">
            <circle cx="63.5" cy="25.5" r="1.5"/>
        </g>
        <g transform="matrix(1,0,0,1,12,48)">
            <circle cx="63.5" cy="25.5" r="1.5"/>
        </g>
        <g transform="matrix(1,0,0,1,18,48)">
            <circle cx="63.5" cy="25.5" r="1.5"/>
        </g>
        <g transform="matrix(1,0,0,1,24,48)">
            <circle cx="63.5" cy="25.5" r="1.5"/>
        </g>
        <g transform="matrix(1,0,0,1,30,48)">
            <circle cx="63.5" cy="25.5" r="1.5"/>
        </g>
        <g transform="matrix(1,0,0,1,90,48)">
            <circle cx="63.5" cy="25.5" r="1.5"/>
        </g>
        <g transform="matrix(1,0,0,1,96,48)">
            <circle cx="63.5" cy="25.5" r="1.5"/>
        </g>
        <g transform="matrix(1,0,0,1,102,48)">
            <circle cx="63.5" cy="25.5" r="1.5"/>
        </g>
        <g transform="matrix(1,0,0,1,108,48)">
            <circle cx="63.5" cy="25.5" r="1.5"/>
        </g>
        <g transform="matrix(1,0,0,1,114,48)">
            <circle cx="63.5" cy="25.5" r="1.5"/>
        </g>
        <g transform="matrix(1,0,0,1,120,48)">
            <circle cx="63.5" cy="25.5" r="1.5"/>
        </g>
        <g transform="matrix(1,0,0,1,0,54)">
            <circle cx="63.5" cy="25.5" r="1.5"/>
        </g>
        <g transform="matrix(1,0,0,1,6,54)">
            <circle cx="63.5" cy="25.5" r="1.5"/>
        </g>
        <g transform="matrix(1,0,0,1,12,54)">
            <circle cx="63.5" cy="25.5" r="1.5"/>
        </g>
        <g transform="matrix(1,0,0,1,18,54)">
            <circle cx="63.5" cy="25.5" r="1.5"/>
        </g>
        <g transform="matrix(1,0,0,1,24,54)">
            <circle cx="63.5" cy="25.5" r="1.5"/>
        </g>
        <g transform="matrix(1,0,0,1,30,54)">
            <circle cx="63.5" cy="25.5" r="1.5"/>
        </g>
        <g transform="matrix(1,0,0,1,90,54)">
            <circle cx="63.5" cy="25.5" r="1.5"/>
        </g>
        <g transform="matrix(1,0,0,1,96,54)">
            <circle cx="63.5" cy="25.5" r="1.5"/>
        </g>
        <g transform="matrix(1,0,0,1,102,54)">
            <circle cx="63.5" cy="25.5" r="1.5"/>
        </g>
        <g transform="matrix(1,0,0,1,108,54)">
            <circle cx="63.5" cy="25.5" r="1.5"/>
        </g>
        <g transform="matrix(1,0,0,1,114,54)">
            <circle cx="63.5" cy="25.5" r="1.5"/>
        </g>
        <g transform="matrix(1,0,0,1,120,54)">
            <circle cx="63.5" cy="25.5" r="1.5"/>
        </g>
        <g transform="matrix(1,0,0,1,0,60)">
            <circle cx="63.5" cy="25.5" r="1.5"/>
        </g>
        <g transform="matrix(1,0,0,1,6,60)">
            <circle cx="63.5" cy="25.5" r="1.5"/>
        </g>
        <g transform="matrix(1,0,0,1,12,60)">
            <circle cx="63.5" cy="25.5" r="1.5"/>
        </g>
        <g transform="matrix(1,0,0,1,18,60)">
            <circle cx="63.5" cy="25.5" r="1.5"/>
        </g>
        <g transform="matrix(1,0,0,1,24,60)">
            <circle cx="63.5" cy="25.5" r="1.5"/>
        </g>
        <g transform="matrix(1,0,0,1,30,60)">
            <circle cx="63.5" cy="25.5" r="1.5"/>
        </g>
        <g transform="matrix(1,0,0,1,90,60)">
            <circle cx="63.5" cy="25.5" r="1.5"/>
        </g>
        <g transform="matrix(1,0,0,1,96,60)">
            <circle cx="63.5" cy="25.5" r="1.5"/>
        </g>
        <g transform="matrix(1,0,0,1,102,60)">
            <circle cx="63.5" cy="25.5" r="1.5"/>
        </g>
        <g transform="matrix(1,0,0,1,108,60)">
            <circle cx="63.5" cy="25.5" r="1.5"/>
        </g>
        <g transform="matrix(1,0,0,1,114,60)">
            <circle cx="63.5" cy="25.5" r="1.5"/>
        </g>
        <g transform="matrix(1,0,0,1,120,60)">
            <circle cx="63.5" cy="25.5" r="1.5"/>
        </g>
        <g transform="matrix(1,0,0,1,0,66)">
            <circle cx="63.5" cy="25.5" r="1.5"/>
        </g>
        <g transform="matrix(1,0,0,1,6,66)">
            <circle cx="63.5" cy="25.5" r="1.5"/>
        </g>
        <g transform="matrix(1,0,0,1,12,66)">
            <circle cx="63.5" cy="25.5" r="1.5"/>
        </g>
        <g transform="matrix(1,0,0,1,18,66)">
            <circle cx="63.5" cy="25.5" r="1.5"/>
        </g>
        <g transform="matrix(1,0,0,1,24,66)">
            <circle cx="63.5" cy="25.5" r="1.5"/>
        </g>
        <g transform="matrix(1,0,0,1,30,66)">
            <circle cx="63.5" cy="25.5" r="1.5"/>
        </g>
        <g transform="matrix(1,0,0,1,90,66)">
            <circle cx="63.5" cy="25.5" r="1.5"/>
        </g>
        <g transform="matrix(1,0,0,1,96,66)">
            <circle cx="63.5" cy="25.5" r="1.5"/>
        </g>
        <g transform="matrix(1,0,0,1,102,66)">
            <circle cx="63.5" cy="25.5" r="1.5"/>
        </g>
        <g transform="matrix(1,0,0,1,108,66)">
            <circle cx="63.5" cy="25.5" r="1.5"/>
        </g>
        <g transform="matrix(1,0,0,1,114,66)">
            <circle cx="63.5" cy="25.5" r="1.5"/>
        </g>
        <g transform="matrix(1,0,0,1,120,66)">
            <circle cx="63.5" cy="25.5" r="1.5"/>
        </g>
        <g transform="matrix(1,0,0,1,0,72)">
            <circle cx="63.5" cy="25.5" r="1.5"/>
        </g>
        <g transform="matrix(1,0,0,1,6,72)">
            <circle cx="63.5" cy="25.5" r="1.5"/>
        </g>
        <g transform="matrix(1,0,0,1,12,72)">
            <circle cx="63.5" cy="25.5" r="1.5"/>
        </g>
        <g transform="matrix(1,0,0,1,18,72)">
            <circle cx="63.5" cy="25.5" r="1.5"/>
        </g>
        <g transform="matrix(1,0,0,1,24,72)">
            <circle cx="63.5" cy="25.5" r="1.5"/>
        </g>
        <g transform="matrix(1,0,0,1,30,72)">
            <circle cx="63.5" cy="25.5" r="1.5"/>
        </g>
        <g transform="matrix(1,0,0,1,90,72)">
            <circle cx="63.5" cy="25.5" r="1.5"/>
        </g>
        <g transform="matrix(1,0,0,1,96,72)">
            <circle cx="63.5" cy="25.5" r="1.5"/>
        </g>
        <g transform="matrix(1,0,0,1,102,72)">
            <circle cx="63.5" cy="25.5" r="1.5"/>
        </g>
        <g transform="matrix(1,0,0,1,108,72)">
            <circle cx="63.5" cy="25.5" r="1.5"/>
        </g>
        <g transform="matrix(1,0,0,1,114,72)">
            <circle cx="63.5" cy="25.5" r="1.5"/>
        </g>
        <g transform="matrix(1,0,0,1,120,72)">
            <circle cx="63.5" cy="25.5" r="1.5"/>
        </g>
        <g transform="matrix(1,0,0,1,0,78)">
            <circle cx="63.5" cy="25.5" r="1.5"/>
        </g>
        <g transform="matrix(1,0,0,1,6,78)">
            <circle cx="63.5" cy="25.5" r="1.5"/>
        </g>
        <g transform="matrix(1,0,0,1,12,78)">
            <circle cx="63.5" cy="25.5" r="1.5"/>
        </g>
        <g transform="matrix(1,0,0,1,18,78)">
            <circle cx="63.5" cy="25.5" r="1.5"/>
        </g>
        <g transform="matrix(1,0,0,1,24,78)">
            <circle cx="63.5" cy="25.5" r="1.5"/>
        </g>
        <g transform="matrix(1,0,0,1,30,78)">
            <circle cx="63.5" cy="25.5" r="1.5"/>
        </g>
        <g transform="matrix(1,0,0,1,36,78)">
            <circle cx="63.5" cy="25.5" r="1.5"/>
        </g>
        <g transform="matrix(1,0,0,1,42,78)">
            <circle cx="63.5" cy="25.5" r="1.5"/>
        </g>
        <g transform="matrix(1,0,0,1,48,78)">
            <circle cx="63.5" cy="25.5" r="1.5"/>
        </g>
        <g transform="matrix(1,0,0,1,54,78)">
            <circle cx="63.5" cy="25.5" r="1.5"/>
        </g>
        <g transform="matrix(1,0,0,1,60,78)">
            <circle cx="63.5" cy="25.5" r="1.5"/>
        </g>
        <g transform="matrix(1,0,0,1,66,78)">
            <circle cx="63.5" cy="25.5" r="1.5"/>
        </g>
        <g transform="matrix(1,0,0,1,72,78)">
            <circle cx="63.5" cy="25.5" r="1.5"/>
        </g>
        <g transform="matrix(1,0,0,1,78,78)">
            <circle cx="63.5" cy="25.5" r="1.5"/>
        </g>
        <g transform="matrix(1,0,0,1,84,78)">
            <circle cx="63.5" cy="25.5" r="1.5"/>
        </g>
        <g transform="matrix(1,0,0,1,90,78)">
            <circle cx="63.5" cy="25.5" r="1.5"/>
        </g>
        <g transform="matrix(1,0,0,1,96,78)">
            <circle cx="63.5" cy="25.5" r="1.5"/>
        </g>
        <g transform="matrix(1,0,0,1,102,78)">
            <circle cx="63.5" cy="25.5" r="1.5"/>
        </g>
        <g transform="matrix(1,0,0,1,108,78)">
            <circle cx="63.5" cy="25.5" r="1.5"/>
        </g>
        <g transform="matrix(1,0,0,1,114,78)">
            <circle cx="63.5" cy="25.5" r="1.5"/>
        </g>
        <g transform="matrix(1,0,0,1,120,78)">
            <circle cx="63.5" cy="25.5" r="1.5"/>
        </g>
        <g transform="matrix(1,0,0,1,0,84)">
            <circle cx="63.5" cy="25.5" r="1.5"/>
        </g>
        <g transform="matrix(1,0,0,1,6,84)">
            <circle cx="63.5" cy="25.5" r="1.5"/>
        </g>
        <g transform="matrix(1,0,0,1,12,84)">
            <circle cx="63.5" cy="25.5" r="1.5"/>
        </g>
        <g transform="matrix(1,0,0,1,18,84)">
            <circle cx="63.5" cy="25.5" r="1.5"/>
        </g>
        <g transform="matrix(1,0,0,1,24,84)">
            <circle cx="63.5" cy="25.5" r="1.5"/>
        </g>
        <g transform="matrix(1,0,0,1,30,84)">
            <circle cx="63.5" cy="25.5" r="1.5"/>
        </g>
        <g transform="matrix(1,0,0,1,36,84)">
            <circle cx="63.5" cy="25.5" r="1.5"/>
        </g>
        <g transform="matrix(1,0,0,1,42,84)">
            <circle cx="63.5" cy="25.5" r="1.5"/>
        </g>
        <g transform="matrix(1,0,0,1,48,84)">
            <circle cx="63.5" cy="25.5" r="1.5"/>
        </g>
        <g transform="matrix(1,0,0,1,54,84)">
            <circle cx="63.5" cy="25.5" r="1.5"/>
        </g>
        <g transform="matrix(1,0,0,1,60,84)">
            <circle cx="63.5" cy="25.5" r="1.5"/>
        </g>
        <g transform="matrix(1,0,0,1,66,84)">
            <circle cx="63.5" cy="25.5" r="1.5"/>
        </g>
        <g transform="matrix(1,0,0,1,72,84)">
            <circle cx="63.5" cy="25.5" r="1.5"/>
        </g>
        <g transform="matrix(1,0,0,1,78,84)">
            <circle cx="63.5" cy="25.5" r="1.5"/>
        </g>
        <g transform="matrix(1,0,0,1,84,84)">
            <circle cx="63.5" cy="25.5" r="1.5"/>
        </g>
        <g transform="matrix(1,0,0,1,90,84)">
            <circle cx="63.5" cy="25.5" r="1.5"/>
        </g>
        <g transform="matrix(1,0,0,1,96,84)">
            <circle cx="63.5" cy="25.5" r="1.5"/>
        </g>
        <g transform="matrix(1,0,0,1,102,84)">
            <circle cx="63.5" cy="25.5" r="1.5"/>
        </g>
        <g transform="matrix(1,0,0,1,108,84)">
            <circle cx="63.5" cy="25.5" r="1.5"/>
        </g>
        <g transform="matrix(1,0,0,1,114,84)">
            <circle cx="63.5" cy="25.5" r="1.5"/>
        </g>
        <g transform="matrix(1,0,0,1,120,84)">
            <circle cx="63.5" cy="25.5" r="1.5"/>
        </g>
        <g transform="matrix(1,0,0,1,0,90)">
            <circle cx="63.5" cy="25.5" r="1.5"/>
        </g>
        <g transform="matrix(1,0,0,1,6,90)">
            <circle cx="63.5" cy="25.5" r="1.5"/>
        </g>
        <g transform="matrix(1,0,0,1,12,90)">
            <circle cx="63.5" cy="25.5" r="1.5"/>
        </g>
        <g transform="matrix(1,0,0,1,18,90)">
            <circle cx="63.5" cy="25.5" r="1.5"/>
        </g>
        <g transform="matrix(1,0,0,1,24,90)">
            <circle cx="63.5" cy="25.5" r="1.5"/>
        </g>
        <g transform="matrix(1,0,0,1,30,90)">
            <circle cx="63.5" cy="25.5" r="1.5"/>
        </g>
        <g transform="matrix(1,0,0,1,36,90)">
            <circle cx="63.5" cy="25.5" r="1.5"/>
        </g>
        <g transform="matrix(1,0,0,1,42,90)">
            <circle cx="63.5" cy="25.5" r="1.5"/>
        </g>
        <g transform="matrix(1,0,0,1,48,90)">
            <circle cx="63.5" cy="25.5" r="1.5"/>
        </g>
        <g transform="matrix(1,0,0,1,54,90)">
            <circle cx="63.5" cy="25.5" r="1.5"/>
        </g>
        <g transform="matrix(1,0,0,1,60,90)">
            <circle cx="63.5" cy="25.5" r="1.5"/>
        </g>
        <g transform="matrix(1,0,0,1,66,90)">
            <circle cx="63.5" cy="25.5" r="1.5"/>
        </g>
        <g transform="matrix(1,0,0,1,72,90)">
            <circle cx="63.5" cy="25.5" r="1.5"/>
        </g>
        <g transform="matrix(1,0,0,1,78,90)">
            <circle cx="63.5" cy="25.5" r="1.5"/>
        </g>
        <g transform="matrix(1,0,0,1,84,90)">
            <circle cx="63.5" cy="25.5" r="1.5"/>
        </g>
        <g transform="matrix(1,0,0,1,90,90)">
            <circle cx="63.5" cy="25.5" r="1.5"/>
        </g>
        <g transform="matrix(1,0,0,1,96,90)">
            <circle cx="63.5" cy="25.5" r="1.5"/>
        </g>
        <g transform="matrix(1,0,0,1,102,90)">
            <circle cx="63.5" cy="25.5" r="1.5"/>
        </g>
        <g transform="matrix(1,0,0,1,108,90)">
            <circle cx="63.5" cy="25.5" r="1.5"/>
        </g>
        <g transform="matrix(1,0,0,1,114,90)">
            <circle cx="63.5" cy="25.5" r="1.5"/>
        </g>
        <g transform="matrix(1,0,0,1,120,90)">
            <circle cx="63.5" cy="25.5" r="1.5"/>
        </g>
        <g transform="matrix(1,0,0,1,0,96)">
            <circle cx="63.5" cy="25.5" r="1.5"/>
        </g>
        <g transform="matrix(1,0,0,1,6,96)">
            <circle cx="63.5" cy="25.5" r="1.5"/>
        </g>
        <g transform="matrix(1,0,0,1,12,96)">
            <circle cx="63.5" cy="25.5" r="1.5"/>
        </g>
        <g transform="matrix(1,0,0,1,18,96)">
            <circle cx="63.5" cy="25.5" r="1.5"/>
        </g>
        <g transform="matrix(1,0,0,1,24,96)">
            <circle cx="63.5" cy="25.5" r="1.5"/>
        </g>
        <g transform="matrix(1,0,0,1,30,96)">
            <circle cx="63.5" cy="25.5" r="1.5"/>
        </g>
        <g transform="matrix(1,0,0,1,36,96)">
            <circle cx="63.5" cy="25.5" r="1.5"/>
        </g>
        <g transform="matrix(1,0,0,1,42,96)">
            <circle cx="63.5" cy="25.5" r="1.5"/>
        </g>
        <g transform="matrix(1,0,0,1,48,96)">
            <circle cx="63.5" cy="25.5" r="1.5"/>
        </g>
        <g transform="matrix(1,0,0,1,54,96)">
            <circle cx="63.5" cy="25.5" r="1.5"/>
        </g>
        <g transform="matrix(1,0,0,1,60,96)">
            <circle cx="63.5" cy="25.5" r="1.5"/>
        </g>
        <g transform="matrix(1,0,0,1,66,96)">
            <circle cx="63.5" cy="25.5" r="1.5"/>
        </g>
        <g transform="matrix(1,0,0,1,72,96)">
            <circle cx="63.5" cy="25.5" r="1.5"/>
        </g>
        <g transform="matrix(1,0,0,1,78,96)">
            <circle cx="63.5" cy="25.5" r="1.5"/>
        </g>
        <g transform="matrix(1,0,0,1,84,96)">
            <circle cx="63.5" cy="25.5" r="1.5"/>
        </g>
        <g transform="matrix(1,0,0,1,90,96)">
            <circle cx="63.5" cy="25.5" r="1.5"/>
        </g>
        <g transform="matrix(1,0,0,1,96,96)">
            <circle cx="63.5" cy="25.5" r="1.5"/>
        </g>
        <g transform="matrix(1,0,0,1,102,96)">
            <circle cx="63.5" cy="25.5" r="1.5"/>
        </g>
        <g transform="matrix(1,0,0,1,108,96)">
            <circle cx="63.5" cy="25.5" r="1.5"/>
        </g>
        <g transform="matrix(1,0,0,1,114,96)">
            <circle cx="63.5" cy="25.5" r="1.5"/>
        </g>
        <g transform="matrix(1,0,0,1,120,96)">
            <circle cx="63.5" cy="25.5" r="1.5"/>
        </g>
        <g transform="matrix(1,0,0,1,0,102)">
            <circle cx="63.5" cy="25.5" r="1.5"/>
        </g>
        <g transform="matrix(1,0,0,1,6,102)">
            <circle cx="63.5" cy="25.5" r="1.5"/>
        </g>
        <g transform="matrix(1,0,0,1,12,102)">
            <circle cx="63.5" cy="25.5" r="1.5"/>
        </g>
        <g transform="matrix(1,0,0,1,18,102)">
            <circle cx="63.5" cy="25.5" r="1.5"/>
        </g>
        <g transform="matrix(1,0,0,1,24,102)">
            <circle cx="63.5" cy="25.5" r="1.5"/>
        </g>
        <g transform="matrix(1,0,0,1,30,102)">
            <circle cx="63.5" cy="25.5" r="1.5"/>
        </g>
        <g transform="matrix(1,0,0,1,36,102)">
            <circle cx="63.5" cy="25.5" r="1.5"/>
        </g>
        <g transform="matrix(1,0,0,1,42,102)">
            <circle cx="63.5" cy="25.5" r="1.5"/>
        </g>
        <g transform="matrix(1,0,0,1,48,102)">
            <circle cx="63.5" cy="25.5" r="1.5"/>
        </g>
        <g transform="matrix(1,0,0,1,54,102)">
            <circle cx="63.5" cy="25.5" r="1.5"/>
        </g>
        <g transform="matrix(1,0,0,1,60,102)">
            <circle cx="63.5" cy="25.5" r="1.5"/>
        </g>
        <g transform="matrix(1,0,0,1,66,102)">
            <circle cx="63.5" cy="25.5" r="1.5"/>
        </g>
        <g transform="matrix(1,0,0,1,72,102)">
            <circle cx="63.5" cy="25.5" r="1.5"/>
        </g>
        <g transform="matrix(1,0,0,1,78,102)">
            <circle cx="63.5" cy="25.5" r="1.5"/>
        </g>
        <g transform="matrix(1,0,0,1,84,102)">
            <circle cx="63.5" cy="25.5" r="1.5"/>
        </g>
        <g transform="matrix(1,0,0,1,90,102)">
            <circle cx="63.5" cy="25.5" r="1.5"/>
        </g>
        <g transform="matrix(1,0,0,1,96,102)">
            <circle cx="63.5" cy="25.5" r="1.5"/>
        </g>
        <g transform="matrix(1,0,0,1,102,102)">
            <circle cx="63.5" cy="25.5" r="1.5"/>
        </g>
        <g transform="matrix(1,0,0,1,108,102)">
            <circle cx="63.5" cy="25.5" r="1.5"/>
        </g>
        <g transform="matrix(1,0,0,1,114,102)">
            <circle cx="63.5" cy="25.5" r="1.5"/>
        </g>
        <g transform="matrix(1,0,0,1,120,102)">
            <circle cx="63.5" cy="25.5" r="1.5"/>
        </g>
        <g transform="matrix(1,0,0,1,0,108)">
            <circle cx="63.5" cy="25.5" r="1.5"/>
        </g>
        <g transform="matrix(1,0,0,1,6,108)">
            <circle cx="63.5" cy="25.5" r="1.5"/>
        </g>
        <g transform="matrix(1,0,0,1,12,108)">
            <circle cx="63.5" cy="25.5" r="1.5"/>
        </g>
        <g transform="matrix(1,0,0,1,18,108)">
            <circle cx="63.5" cy="25.5" r="1.5"/>
        </g>
        <g transform="matrix(1,0,0,1,24,108)">
            <circle cx="63.5" cy="25.5" r="1.5"/>
        </g>
        <g transform="matrix(1,0,0,1,30,108)">
            <circle cx="63.5" cy="25.5" r="1.5"/>
        </g>
        <g transform="matrix(1,0,0,1,36,108)">
            <circle cx="63.5" cy="25.5" r="1.5"/>
        </g>
        <g transform="matrix(1,0,0,1,42,108)">
            <circle cx="63.5" cy="25.5" r="1.5"/>
        </g>
        <g transform="matrix(1,0,0,1,48,108)">
            <circle cx="63.5" cy="25.5" r="1.5"/>
        </g>
        <g transform="matrix(1,0,0,1,54,108)">
            <circle cx="63.5" cy="25.5" r="1.5"/>
        </g>
        <g transform="matrix(1,0,0,1,60,108)">
            <circle cx="63.5" cy="25.5" r="1.5"/>
        </g>
        <g transform="matrix(1,0,0,1,66,108)">
            <circle cx="63.5" cy="25.5" r="1.5"/>
        </g>
        <g transform="matrix(1,0,0,1,72,108)">
            <circle cx="63.5" cy="25.5" r="1.5"/>
        </g>
        <g transform="matrix(1,0,0,1,78,108)">
            <circle cx="63.5" cy="25.5" r="1.5"/>
        </g>
        <g transform="matrix(1,0,0,1,84,108)">
            <circle cx="63.5" cy="25.5" r="1.5"/>
        </g>
        <g transform="matrix(1,0,0,1,90,108)">
            <circle cx="63.5" cy="25.5" r="1.5"/>
        </g>
        <g transform="matrix(1,0,0,1,96,108)">
            <circle cx="63.5" cy="25.5" r="1.5"/>
        </g>
        <g transform="matrix(1,0,0,1,102,108)">
            <circle cx="63.5" cy="25.5" r="1.5"/>
        </g>
        <g transform="matrix(1,0,0,1,108,108)">
            <circle cx="63.5" cy="25.5" r="1.5"/>
        </g>
        <g transform="matrix(1,0,0,1,114,108)">
            <circle cx="63.5" cy="25.5" r="1.5"/>
        </g>
        <g transform="matrix(1,0,0,1,120,108)">
            <circle cx="63.5" cy="25.5" r="1.5"/>
        </g>
        <g transform="matrix(1,0,0,1,0,114)">
            <circle cx="63.5" cy="25.5" r="1.5"/>
        </g>
        <g transform="matrix(1,0,0,1,6,114)">
            <circle cx="63.5" cy="25.5" r="1.5"/>
        </g>
        <g transform="matrix(1,0,0,1,12,114)">
            <circle cx="63.5" cy="25.5" r="1.5"/>
        </g>
        <g transform="matrix(1,0,0,1,18,114)">
            <circle cx="63.5" cy="25.5" r="1.5"/>
        </g>
        <g transform="matrix(1,0,0,1,24,114)">
            <circle cx="63.5" cy="25.5" r="1.5"/>
        </g>
        <g transform="matrix(1,0,0,1,30,114)">
            <circle cx="63.5" cy="25.5" r="1.5"/>
        </g>
        <g transform="matrix(1,0,0,1,36,114)">
            <circle cx="63.5" cy="25.5" r="1.5"/>
        </g>
        <g transform="matrix(1,0,0,1,42,114)">
            <circle cx="63.5" cy="25.5" r="1.5"/>
        </g>
        <g transform="matrix(1,0,0,1,48,114)">
            <circle cx="63.5" cy="25.5" r="1.5"/>
        </g>
        <g transform="matrix(1,0,0,1,54,114)">
            <circle cx="63.5" cy="25.5" r="1.5"/>
        </g>
        <g transform="matrix(1,0,0,1,60,114)">
            <circle cx="63.5" cy="25.5" r="1.5"/>
        </g>
        <g transform="matrix(1,0,0,1,66,114)">
            <circle cx="63.5" cy="25.5" r="1.5"/>
        </g>
        <g transform="matrix(1,0,0,1,72,114)">
            <circle cx="63.5" cy="25.5" r="1.5"/>
        </g>
        <g transform="matrix(1,0,0,1,78,114)">
            <circle cx="63.5" cy="25.5" r="1.5"/>
        </g>
        <g transform="matrix(1,0,0,1,84,114)">
            <circle cx="63.5" cy="25.5" r="1.5"/>
        </g>
        <g transform="matrix(1,0,0,1,90,114)">
            <circle cx="63.5" cy="25.5" r="1.5"/>
        </g>
        <g transform="matrix(1,0,0,1,96,114)">
            <circle cx="63.5" cy="25.5" r="1.5"/>
        </g>
        <g transform="matrix(1,0,0,1,102,114)">
            <circle cx="63.5" cy="25.5" r="1.5"/>
        </g>
        <g transform="matrix(1,0,0,1,108,114)">
            <circle cx="63.5" cy="25.5" r="1.5"/>
        </g>
        <g transform="matrix(1,0,0,1,114,114)">
            <circle cx="63.5" cy="25.5" r="1.5"/>
        </g>
        <g transform="matrix(1,0,0,1,120,114)">
            <circle cx="63.5" cy="25.5" r="1.5"/>
        </g>
        <g transform="matrix(1,0,0,1,0,120)">
            <circle cx="63.5" cy="25.5" r="1.5"/>
        </g>
        <g transform="matrix(1,0,0,1,6,120)">
            <circle cx="63.5" cy="25.5" r="1.5"/>
        </g>
        <g transform="matrix(1,0,0,1,12,120)">
            <circle cx="63.5" cy="25.5" r="1.5"/>
        </g>
        <g transform="matrix(1,0,0,1,18,120)">
            <circle cx="63.5" cy="25.5" r="1.5"/>
        </g>
        <g transform="matrix(1,0,0,1,24,120)">
            <circle cx="63.5" cy="25.5" r="1.5"/>
        </g>
        <g transform="matrix(1,0,0,1,30,120)">
            <circle cx="63.5" cy="25.5" r="1.5"/>
        </g>
        <g transform="matrix(1,0,0,1,36,120)">
            <circle cx="63.5" cy="25.5" r="1.5"/>
        </g>
        <g transform="matrix(1,0,0,1,42,120)">
            <circle cx="63.5" cy="25.5" r="1.5"/>
        </g>
        <g transform="matrix(1,0,0,1,48,120)">
            <circle cx="63.5" cy="25.5" r="1.5"/>
        </g>
        <g transform="matrix(1,0,0,1,54,120)">
            <circle cx="63.5" cy="25.5" r="1.5"/>
        </g>
        <g transform="matrix(1,0,0,1,60,120)">
            <circle cx="63.5" cy="25.5" r="1.5"/>
        </g>
        <g transform="matrix(1,0,0,1,66,120)">
            <circle cx="63.5" cy="25.5" r="1.5"/>
        </g>
        <g transform="matrix(1,0,0,1,72,120)">
            <circle cx="63.5" cy="25.5" r="1.5"/>
        </g>
        <g transform="matrix(1,0,0,1,78,120)">
            <circle cx="63.5" cy="25.5" r="1.5"/>
        </g>
        <g transform="matrix(1,0,0,1,84,120)">
            <circle cx="63.5" cy="25.5" r="1.5"/>
        </g>
        <g transform="matrix(1,0,0,1,90,120)">
            <circle cx="63.5" cy="25.5" r="1.5"/>
        </g>
        <g transform="matrix(1,0,0,1,96,120)">
            <circle cx="63.5" cy="25.5" r="1.5"/>
        </g>
        <g transform="matrix(1,0,0,1,102,120)">
            <circle cx="63.5" cy="25.5" r="1.5"/>
        </g>
        <g transform="matrix(1,0,0,1,108,120)">
            <circle cx="63.5" cy="25.5" r="1.5"/>
        </g>
        <g transform="matrix(1,0,0,1,114,120)">
            <circle cx="63.5" cy="25.5" r="1.5"/>
        </g>
        <g transform="matrix(1,0,0,1,120,120)">
            <circle cx="63.5" cy="25.5" r="1.5"/>
        </g>
    </g>
    <g transform="matrix(13.1766,0,0,11.5954,-1167.07,-557.786)">
        <path d="M124.333,87.141L123.338,87.229C123.249,86.783 123.123,86.459 122.96,86.256C122.69,85.932 122.356,85.77 121.959,85.77C121.641,85.77 121.361,85.871 121.12,86.073C120.805,86.334 120.557,86.715 120.375,87.217C120.194,87.718 120.099,88.431 120.092,89.358C120.333,88.941 120.627,88.631 120.976,88.429C121.324,88.227 121.689,88.126 122.071,88.126C122.738,88.126 123.306,88.405 123.774,88.963C124.243,89.521 124.477,90.242 124.477,91.126C124.477,91.708 124.367,92.248 124.147,92.747C123.926,93.246 123.623,93.628 123.238,93.893C122.853,94.158 122.415,94.291 121.926,94.291C121.092,94.291 120.412,93.943 119.886,93.246C119.36,92.549 119.097,91.4 119.097,89.8C119.097,88.01 119.388,86.709 119.97,85.896C120.477,85.189 121.161,84.835 122.021,84.835C122.662,84.835 123.187,85.039 123.596,85.448C124.006,85.856 124.251,86.421 124.333,87.141ZM120.247,91.133C120.247,91.524 120.321,91.899 120.467,92.257C120.613,92.615 120.818,92.888 121.081,93.075C121.344,93.263 121.62,93.356 121.909,93.356C122.332,93.356 122.695,93.163 122.999,92.775C123.303,92.388 123.455,91.861 123.455,91.196C123.455,90.556 123.305,90.052 123.004,89.683C122.704,89.315 122.326,89.13 121.871,89.13C121.418,89.13 121.035,89.315 120.72,89.683C120.405,90.052 120.247,90.535 120.247,91.133Z" style="fill-rule:nonzero;"/>
        <path d="M128.68,94.133L128.68,91.916L125.145,91.916L125.145,90.874L128.863,84.873L129.68,84.873L129.68,90.874L130.781,90.874L130.781,91.916L129.68,91.916L129.68,94.133L128.68,94.133ZM128.68,90.874L128.68,86.699L126.128,90.874L128.68,90.874Z" style="fill-rule:nonzero;"/>
    </g>
    <path d="M905.768,54.232L54.232,54.232L54.232,905.768L905.768,905.768L905.768,54.232ZM868.2,91.8L91.8,91.8L91.8,872.2L868.2,872.2L868.2,91.8Z"/>
</svg>
